<svg version="1.2" xmlns="http://www.w3.org/2000/svg" viewBox="0 0 928 1402" width="928" height="1402">
	<title>zavoka-icon</title>
	<style>
		.s0 { fill: #efefef } 
		.s1 { fill: #ae9730 } 
		.s2 { fill: #6ab466 } 
		.s3 { fill: #0c9659 } 
		.s4 { fill: #7bc287 } 
		.s5 { fill: #9bcc5f } 
		.s6 { fill: #a05f32 } 
		.s7 { fill: #8eb654 } 
		.s8 { fill: #b19063 } 
		.s9 { fill: #c1865e } 
		.s10 { fill: #c1875e } 
	</style>
	<path id="Layer" fill-rule="evenodd" class="s0" d="m154.3 802.2c3.4-7.3 6.3-14.4 9.8-21.3 4.7-9.4 9.5-19 15-28 10.7-17.3 21.4-34.6 33-51.2 8.5-12.3 18.6-23.5 27.9-35.2 13.3-16.7 26.4-33.6 37.3-52.1 13.3-22.7 23.7-46.6 30.7-71.9 7.2-26.2 10.7-53.4 21-78.7 4.9-12.1 9.8-24.1 15.1-36.8-3.4 0-6.6-0.3-9.8 0-26.6 2.9-52.4-0.4-77.6-9-21.3-7.4-41.2-17.6-58.5-32.3-7.9-6.7-16.1-13.1-23.3-20.5-21.4-22.1-38.1-47.4-47.8-76.9-4.8-14.9-8.6-30.3-11.9-45.7-1.8-8.4-1.6-17.3-2.2-25.9-0.4-6.3-1.1-12.6-0.9-18.8 0.4-13.3 0.2-26.8 2.1-40 3.6-25.5 7.6-51 13.1-76.1 4.1-18.9 20.9-33.3 41.4-34 15.2-0.5 27.5 5.1 38.8 14.2 14.4 11.7 30.6 20.6 48.3 25.8 17.9 5.2 36.2 8.9 54.4 13.2 11.1 2.7 22.3 5.1 33.3 8.1 12.6 3.3 25.2 6.8 37.5 11 22.4 7.6 43 18.9 61.4 33.9 7.8 6.3 15.7 12.5 22.6 19.7 20.3 21.3 34.4 46 38.9 75.5 1.7 11 2 22.2 3 34.2 3.4 0.2 7.4 0.5 11.5 0.6 9.6 0.1 18.4 2.7 26.5 8 23.1 15.1 26.4 45.3 10.2 65.4-1.6 2-3.2 4.1-4.3 5.6 7.2 7.6 15.3 14.6 21.4 23.1 9.5 13 18.5 26.5 25.9 40.8 11.6 22.5 19 46.6 24 71.5 4.8 24.3 10.7 48.4 21.1 71 8.1 17.5 18.2 33.8 29.9 49.1 4.6 6.1 9.5 12 14.7 17.7 17.3 19.2 34.2 38.6 49.6 59.4 20.8 27.8 38.3 57.5 53.2 88.7 14.6 30.6 26.5 62.3 34.2 95.4 3.3 14.2 5.2 28.8 7.1 43.2 1.5 11.7 2.5 23.5 3 35.3 0.7 15.9 1.8 31.9 0.8 47.7-1.1 18.3-4.1 36.6-6.7 54.8-3.4 24.5-10.6 48-19 71.2-7.4 20.5-16.4 40.3-27.6 58.9-9 14.9-18.7 29.5-29.3 43.3-10.3 13.2-21.5 25.9-33.5 37.5-20 19.4-42.3 36.1-66.4 50.2-9.7 5.7-20.4 10-30.9 14.3-11.4 4.7-22.9 9.2-34.7 12.8-14 4.3-28.1 8.2-42.4 10.9-15.5 2.9-31.3 4.9-47 6-16.9 1.2-33.9 1.5-50.8 1-14.5-0.4-29.1-1.9-43.5-3.9-30.2-4.4-59.5-12.2-88-23.3-21.9-8.6-42.4-19.7-61.7-32.8-10.3-6.8-19.7-15-29-23.3-8.8-7.9-17.6-16-25-25.2-10.5-12.7-20.2-26.2-29.2-40-7-10.7-13.1-22.2-18.7-33.8-11.8-24-20.1-49.3-26.2-75.4-3.4-14.3-6.4-28.7-9-43.1-1.6-9.3-2.5-18.8-3-28.3-1-19.9-2.1-40-1.9-60 0.2-14.1 2.4-28.3 3.8-42.5 2.3-23 7.4-45.7 14.2-67.7 6.9-22 15.8-43.3 24.1-65.3zm301.7-464.5c9.8-0.2 19.6-0.3 29.3-0.6 9.6-0.3 19.2-0.6 28.8-1.2 2.8-0.1 5.9-0.4 8.1-1.8 1.6-1 2.6-4 2.6-6.1 0-1.3-2-3.2-3.5-3.8-2-0.9-4.5-1.1-6.7-1.2-15.9-0.7-31.8-1.5-47.6-1.9-4.1-0.1-7.9-0.4-11.2-3.9 7.8-16.1 12.2-32.5 10.5-50.9-1.7-20-7.9-37.8-19.9-53.4-22.5-29.2-52.4-48.2-87.4-58.6-25.7-7.7-52.2-13.3-78.4-19.2-26.7-5.9-52.7-13.1-76.1-27.5-9-5.5-17.3-11.9-26-17.8-7.6-5.2-12.3-3.9-14 5.1-4.5 25.5-9.9 50.9-12.1 76.6-1.7 20.4-0.6 41.4 1.8 61.8 6.1 52.9 31.4 95.1 74.6 126.4 27.1 19.6 57.6 29.3 91 29.2 10.3-0.1 20.6-1.5 30.7-3.2 22.1-3.8 43.7-9.2 62.8-21.5 7.8-5 15.4-10.5 20.5-19.2 6.4-4.5 13.7-6.5 22.2-7.3zm336.1 583.8c-2.6-13.4-4.3-27-7.8-40.1-18.1-67.9-50.2-128.8-94.7-183.1-13.5-16.5-28.4-31.8-41.9-48.3-30.1-36.7-50.3-78.2-60-124.8-5.5-26.1-11.4-52-22.8-76.3-13-27.9-30.5-52-57.6-67.9-12.2-7.1-25.2-11.2-39.6-8-3.8 0.8-8 3.3-11.5 2.6-10.2-2-18.3 2.2-25.7 7.7-21.8 16.1-38.4 36.7-50.4 61-14.3 28.9-23 59.4-29.7 90.8-12.7 59.1-40.9 110.4-80 156.1-49.6 57.9-85.2 123.4-105 197.2-4.7 17.7-8.1 35.9-11.2 54.1-1.8 10.6-2.5 21.5-2.7 32.3-0.2 19-0.5 38 0.8 56.8 1 14.5 4.1 28.9 6.7 43.3 6.4 35.5 16.9 69.8 33.5 102 18.7 36.2 43.4 67.5 76.3 91.9 51 37.8 109.6 54.3 172.1 58 20.5 1.2 41.2 0.4 61.7-1.1 17.2-1.3 34.7-3.4 51.2-8 23-6.3 45.2-15.4 67.8-23.3 1.1-0.4 2.1-1 3.1-1.5 59.8-34.2 105.8-81.4 135.3-144.1 16.2-34.2 27.4-69.8 32-107.5 1.9-16.2 3.7-32.4 4.8-48.7 0.6-7.5-0.3-15.2-0.9-22.8-1.1-15.8-2.5-31.6-3.8-48.3z"/>
	<path id="Layer" fill-rule="evenodd" class="s1" d="m792.1 921.9c1.3 16.3 2.7 32.1 3.8 47.9 0.6 7.6 1.5 15.3 0.9 22.8-1.1 16.3-2.9 32.5-4.8 48.7-4.6 37.7-15.8 73.3-32 107.5-29.5 62.7-75.5 109.9-135.3 144.1-1 0.5-2 1.1-3.1 1.5-22.6 7.9-44.8 17-67.8 23.3-16.5 4.6-34 6.7-51.2 8-20.5 1.5-41.2 2.3-61.7 1.1-62.5-3.7-121.1-20.2-172.1-58-32.9-24.4-57.6-55.7-76.3-91.9-16.6-32.2-27.1-66.5-33.5-102-2.6-14.4-5.7-28.8-6.7-43.3-1.3-18.8-1-37.8-0.8-56.8 0.2-10.8 0.9-21.7 2.7-32.3 3.1-18.2 6.5-36.4 11.2-54.1 19.8-73.8 55.4-139.3 105-197.2 39.1-45.7 67.3-97 80-156.1 6.7-31.4 15.4-61.9 29.7-90.8 12-24.3 28.6-44.9 50.4-61 7.4-5.5 15.5-9.7 25.7-7.7 3.5 0.7 7.7-1.8 11.5-2.6 14.4-3.2 27.4 0.9 39.6 8 27.1 15.9 44.6 40 57.6 67.9 11.4 24.3 17.3 50.2 22.8 76.3 9.7 46.6 29.9 88.1 60 124.8 13.5 16.5 28.4 31.8 41.9 48.3 44.5 54.3 76.6 115.2 94.7 183.1 3.5 13.1 5.2 26.7 7.8 40.5zm-581.2-85.5c-1.3 3.3-2.8 6.4-3.9 9.8-6.8 20.9-14.3 41.7-19.9 63-4.8 18.4-7.9 37.3-10.8 56.1-1.7 11.1-1.9 22.4-2.1 33.7-0.2 9.6 0.9 19.3 0.8 28.9-0.2 16 0.7 31.8 3.9 47.5 7.3 34.7 15.9 68.9 33.4 100.2 12.8 22.8 28.7 43.2 48.9 59.8 19.8 16.3 41.7 29.1 65.2 39.3 27 11.9 55.4 17.9 84.5 21.3 10.7 1.2 21.3 2.8 32 3.7 7.9 0.6 16.1 1.6 23.7 0.3 12.6-2.3 25.2-2.9 37.9-4 8.3-0.8 16.8-1.2 24.9-3.2 18.5-4.5 37.1-8.9 55.1-15 31.6-10.7 59.6-28 84.3-50.2 23.3-21 40.8-46.4 55.3-73.9 16.2-30.6 27.9-62.9 34.9-96.8 3.1-15.2 6.7-30.5 7.7-45.9 1.3-20.7 0.8-41.5-2.5-62.2-3.8-23.9-8.2-47.7-15.7-70.7-14.6-45.3-36.7-87-61.9-127.1-20.5-32.8-45.6-62-70.5-91.5-19.8-23.4-35.3-49.6-44.8-78.9-7.4-22.8-12.8-46.3-19.3-69.5-6.9-24.5-10.7-50-21-73.6-6-13.7-14-26.2-25.2-36.2-11.7-10.3-25.8-12-40.7-10-6.4 0.9-11.8 2.6-17.4 6.8-19.4 14.4-31.4 33.5-38 56-9.7 32.7-18.4 65.8-27.7 98.7-8.6 30.5-19.6 60.2-38.5 86-17.1 23.3-36 45.1-53.6 68-13.9 18-27.6 36.2-40.1 55.2-15.4 23.2-27.3 48.3-38.9 74.4z"/>
	<path id="Layer" class="s2" d="m433.1 345c-4.4 8.7-12 14.2-19.8 19.2-19.1 12.3-40.7 17.7-62.8 21.5-10.1 1.7-20.4 3.1-30.7 3.2-33.4 0.1-63.9-9.6-91-29.2-43.2-31.3-68.5-73.5-74.6-126.4-2.4-20.4-3.5-41.4-1.8-61.8 2.2-25.7 7.6-51.1 12.1-76.6 1.7-9 6.4-10.3 14-5.1 8.7 5.9 17 12.3 26 17.8 23.4 14.4 49.4 21.6 76.1 27.5 26.2 5.9 52.7 11.5 78.4 19.2 35 10.4 64.9 29.4 87.4 58.6 12 15.6 18.2 33.4 19.9 53.4 1.7 18.4-2.7 34.8-10.9 51.3-4-0.1-7.6-0.3-11.2-1.1-19.9-4.4-39.7-8.8-59.5-13.6-28.4-6.8-54.6-18.5-78-36.3-15.4-11.8-31.3-23-47-34.5-3.7-2.7-7.7-4.5-12.8-3.1-6.4 3.6-7.5 6.6-4.2 11 13.6 18.8 29.5 35.4 48 49.5 17.6 13.5 37.3 23 57.7 31.1 21 8.3 42.6 14.6 65.1 17.6 6.9 0.9 14.4 0.7 19.6 6.8z"/>
	<path id="Layer" class="s3" d="m247.3 229c4.7-1.4 8.7 0.4 12.4 3.1 15.7 11.5 31.6 22.7 47 34.5 23.4 17.8 49.6 29.5 78 36.3 19.8 4.8 39.6 9.2 59.5 13.6 3.6 0.8 7.2 1 11.2 1.5 3.7 2.7 7.5 3 11.6 3.1 15.8 0.4 31.7 1.2 47.6 1.9 2.2 0.1 4.7 0.3 6.7 1.2 1.5 0.6 3.5 2.5 3.5 3.8 0 2.1-1 5.1-2.6 6.1-2.2 1.4-5.3 1.7-8.1 1.8-9.6 0.6-19.2 0.9-28.8 1.2-9.7 0.3-19.5 0.4-30.1 0.4-7.9-1-15-1.4-22-2.5-16-2.5-32.2-4.2-47.8-8.3-46.5-12.1-88.1-33.3-120.7-69.7-7.5-8.3-15-16.5-17.4-28z"/>
	<path id="Layer" class="s4" d="m246.9 229c2.8 11.5 10.3 19.7 17.8 28 32.6 36.4 74.2 57.6 120.7 69.7 15.6 4.1 31.8 5.8 47.8 8.3 7 1.1 14.1 1.5 21.6 2.4-7.3 1.1-14.6 3.1-21.3 7.6-5.6-6.1-13.1-5.9-20-6.8-22.5-3-44.1-9.3-65.1-17.6-20.4-8.1-40.1-17.6-57.7-31.1-18.5-14.1-34.4-30.7-48-49.5-3.3-4.4-2.2-7.4 4.2-11z"/>
	<path id="Layer" fill-rule="evenodd" class="s5" d="m211 836.1c11.5-25.8 23.4-50.9 38.8-74.1 12.5-19 26.2-37.2 40.1-55.2 17.6-22.9 36.5-44.7 53.6-68 18.9-25.8 29.9-55.5 38.5-86 9.3-32.9 18-66 27.7-98.7 6.6-22.5 18.6-41.6 38-56 5.6-4.2 11-5.9 17.4-6.8 14.9-2 29-0.3 40.7 10 11.2 10 19.2 22.5 25.2 36.2 10.3 23.6 14.1 49.1 21 73.6 6.5 23.2 11.9 46.7 19.3 69.5 9.5 29.3 25 55.5 44.8 78.9 24.9 29.5 50 58.7 70.5 91.5 25.2 40.1 47.3 81.8 61.9 127.1 7.5 23 11.9 46.8 15.7 70.7 3.3 20.7 3.8 41.5 2.5 62.2-1 15.4-4.6 30.7-7.7 45.9-7 33.9-18.7 66.2-34.9 96.8-14.5 27.5-32 52.9-55.3 73.9-24.7 22.2-52.7 39.5-84.3 50.2-18 6.1-36.6 10.5-55.1 15-8.1 2-16.6 2.4-24.9 3.2-12.7 1.1-25.3 1.7-37.9 4-7.6 1.3-15.8 0.3-23.7-0.3-10.7-0.9-21.3-2.5-32-3.7-29.1-3.4-57.5-9.4-84.5-21.3-23.5-10.2-45.4-23-65.2-39.3-20.2-16.6-36.1-37-48.9-59.8-17.5-31.3-26.1-65.5-33.4-100.2-3.2-15.7-4.1-31.5-3.9-47.5 0.1-9.6-1-19.3-0.8-28.9 0.2-11.3 0.4-22.6 2.1-33.7 2.9-18.8 6-37.7 10.8-56.1 5.6-21.3 13.1-42.1 19.9-63 1.1-3.4 2.6-6.5 4-10.1zm240.1 1.9c-21 2.1-40.9 8.2-60.1 16.9-36.4 16.6-65.9 41.1-85 76.8-6.6 12.4-12 25.5-18.5 38.6-6.8 4.8-8.8 12.4-11.5 19.5-6.4 16.9-7 34.4-4.2 52.3 6.6 42.4 28.7 75.2 61.1 101.8 16.9 13.9 35.6 25 56.4 32.2 15.4 5.4 31.2 9 47.5 9.9 15.6 0.8 30.9-1.7 45.6-6.4 7.8-2.5 16.1-4.1 22.5-10.7-1.5-0.7-2.6-1.2-3-1.8 15.2-4.9 30.6-9 45.3-15 25.6-10.4 45.2-28.9 62.9-49.6 30.6-35.8 42.8-77.2 36.7-123.7-4.9-38-22-69.9-50.8-95.5-33.2-29.4-72.1-43.7-116.6-45.9-4.1-0.1-8.2-0.5-12.3-0.4-5.1 0.2-10.1 0.6-16 1z"/>
	<path id="Layer" fill-rule="evenodd" class="s6" d="m288.1 970c5.9-12.8 11.3-25.9 17.9-38.3 19.1-35.7 48.6-60.2 85-76.8 19.2-8.7 39.1-14.8 61-16.9 10 0 19 0 28 0 43.9 1.6 82.8 15.9 116 45.3 28.8 25.6 45.9 57.5 50.8 95.5 6.1 46.5-6.1 87.9-36.7 123.7-17.7 20.7-37.3 39.2-62.9 49.6-14.7 6-30.1 10.1-46.1 15.1-16.3 3-31.8 4.3-47.7 3.2-15.8-1.1-31.3-3-46.5-7.5-28.1-8.3-53.4-21.5-74.4-42.6-14.7-14.7-25.6-31.7-34.1-50.5-11.7-25.8-17-52.4-10.8-80.8 1.4-6.1 0.4-12.7 0.5-19zm250.8-104c-0.8 0.3-1.6 0.6-2.4 0.7-16 1.7-28.4 19.1-23.1 37.1 4.1 14 17.1 22.4 33.6 21.2 19.7-1.3 32.7-23.6 24-41-6.4-12.9-17.3-18.1-32.1-18zm39.3 128.9c2.3 0 4.6 0.2 6.9 0.1 8.6-0.5 17.1-10.6 15.8-18.6-2.1-12.7-14.9-19.6-26.7-14.5-6.5 2.8-10.1 8.5-10 15.7 0 8.6 4.3 14 14 17.3z"/>
	<path id="Layer" class="s7" d="m287.8 970.1c0.2 6.2 1.2 12.8-0.2 18.9-6.2 28.4-0.9 55 10.8 80.8 8.5 18.8 19.4 35.8 34.1 50.5 21 21.1 46.3 34.3 74.4 42.6 15.2 4.5 30.7 6.4 46.5 7.5 15.9 1.1 31.4-0.2 47.3-3.1 1.6 0.4 2.7 0.9 4.2 1.6-6.4 6.6-14.7 8.2-22.5 10.7-14.7 4.7-30 7.2-45.6 6.4-16.3-0.9-32.1-4.5-47.5-9.9-20.8-7.2-39.5-18.3-56.4-32.2-32.4-26.6-54.5-59.4-61.1-101.8-2.8-17.9-2.2-35.4 4.2-52.3 2.7-7.1 4.7-14.7 11.8-19.7z"/>
	<path id="Layer" class="s8" d="m479.7 837.7c-8.7 0.3-17.7 0.3-27.3 0.3 4.6-0.4 9.6-0.8 14.7-1 4.1-0.1 8.2 0.3 12.6 0.7z"/>
	<path id="Layer" class="s9" d="m539.3 866c14.4-0.1 25.3 5.1 31.7 18 8.7 17.4-4.3 39.7-24 41-16.5 1.2-29.5-7.2-33.6-21.2-5.3-18 7.1-35.4 23.1-37.1 0.8-0.1 1.6-0.4 2.8-0.7z"/>
	<path id="Layer" class="s10" d="m577.8 994.7c-9.3-3.1-13.6-8.5-13.6-17.1-0.1-7.2 3.5-12.9 10-15.7 11.8-5.1 24.6 1.8 26.7 14.5 1.3 8-7.2 18.1-15.8 18.6-2.3 0.1-4.6-0.1-7.3-0.3z"/>
</svg>